<?xml version="1.0" encoding="UTF-8"?>
<!DOCTYPE svg PUBLIC "-//W3C//DTD SVG 1.1//EN" "http://www.w3.org/Graphics/SVG/1.1/DTD/svg11.dtd">
<svg xmlns="http://www.w3.org/2000/svg" version="1.1" width="512px" height="512px" style="shape-rendering:geometricPrecision; text-rendering:geometricPrecision; image-rendering:optimizeQuality; fill-rule:evenodd; clip-rule:evenodd" xmlns:xlink="http://www.w3.org/1999/xlink">
<g><path style="opacity:0.963" fill="#000000" d="M 233.5,-0.5 C 248.167,-0.5 262.833,-0.5 277.5,-0.5C 367.555,10.0943 435.388,54.4276 481,132.5C 497.855,164.276 508.021,197.942 511.5,233.5C 511.5,248.167 511.5,262.833 511.5,277.5C 499.016,377.807 447.016,449.307 355.5,492C 330.316,502.296 304.316,508.796 277.5,511.5C 262.833,511.5 248.167,511.5 233.5,511.5C 133.193,499.016 61.693,447.016 19,355.5C 8.70332,330.313 2.20332,304.313 -0.5,277.5C -0.5,262.833 -0.5,248.167 -0.5,233.5C 10.0943,143.445 54.4276,75.612 132.5,30C 164.278,13.1449 197.945,2.97822 233.5,-0.5 Z M 260.5,29.5 C 332.843,31.9214 391.343,61.5881 436,118.5C 436.667,119.5 436.667,120.5 436,121.5C 415.752,156.332 395.252,190.998 374.5,225.5C 336.836,159.868 298.836,94.5349 260.5,29.5 Z M 224.5,30.5 C 226.592,30.5614 228.092,31.5614 229,33.5C 248.833,68 268.667,102.5 288.5,137C 213.167,137.667 137.833,137.667 62.5,137C 100.684,77.6833 154.684,42.1833 224.5,30.5 Z M 454.5,148.5 C 483.582,202.844 489.749,259.844 473,319.5C 470.658,327.359 467.825,335.026 464.5,342.5C 423.5,343.833 382.5,343.833 341.5,342.5C 379.178,277.806 416.845,213.139 454.5,148.5 Z M 46.5,167.5 C 87.5054,167.167 128.505,167.5 169.5,168.5C 132,233.5 94.5,298.5 57,363.5C 27.5008,308.829 21.1675,251.496 38,191.5C 40.545,183.363 43.3784,175.363 46.5,167.5 Z M 204.5,167.5 C 238.74,167.171 272.906,167.504 307,168.5C 323.454,197.912 340.288,227.078 357.5,256C 340.5,285 323.5,314 306.5,343C 272.495,343.833 238.495,343.667 204.5,342.5C 188,314.167 171.5,285.833 155,257.5C 154.333,256.167 154.333,254.833 155,253.5C 171.764,224.969 188.264,196.302 204.5,167.5 Z M 136.5,285.5 C 174.933,350.855 213.266,416.355 251.5,482C 179.16,479.414 120.66,449.914 76,393.5C 75.7434,390.983 76.4101,388.65 78,386.5C 97.7273,352.946 117.227,319.279 136.5,285.5 Z M 223.5,373.5 C 298.501,373.333 373.501,373.5 448.5,374C 410.264,433.669 355.93,469.169 285.5,480.5C 264.557,444.942 243.891,409.275 223.5,373.5 Z"/></g>
</svg>
