<?xml version="1.0" encoding="UTF-8"?>
<!DOCTYPE svg PUBLIC "-//W3C//DTD SVG 1.1//EN" "http://www.w3.org/Graphics/SVG/1.1/DTD/svg11.dtd">
<svg xmlns="http://www.w3.org/2000/svg" version="1.1" width="512px" height="512px" style="shape-rendering:geometricPrecision; text-rendering:geometricPrecision; image-rendering:optimizeQuality; fill-rule:evenodd; clip-rule:evenodd" xmlns:xlink="http://www.w3.org/1999/xlink">
<g><path style="opacity:0.995" fill="#479fcb" d="M 416.5,99.5 C 321.833,99.3333 227.166,99.5 132.5,100C 126.394,102.202 121.727,106.035 118.5,111.5C 116.566,115.235 115.566,119.235 115.5,123.5C 115.5,127.5 115.5,131.5 115.5,135.5C 115.5,139.5 115.5,143.5 115.5,147.5C 115.861,151.915 117.194,155.915 119.5,159.5C 122.05,164.543 126.05,168.043 131.5,170C 138.076,171.377 144.743,171.877 151.5,171.5C 151.5,179.5 151.5,187.5 151.5,195.5C 141.5,195.5 131.5,195.5 121.5,195.5C 105.751,197.216 95.5843,190.549 91,175.5C 90.3333,148.833 90.3333,122.167 91,95.5C 92.8812,85.8863 98.3812,79.3863 107.5,76C 212.167,75.3333 316.833,75.3333 421.5,76C 430.31,82.887 430.643,90.2203 422.5,98C 420.655,99.128 418.655,99.628 416.5,99.5 Z"/></g>
<g><path style="opacity:1" fill="#e9e9e9" d="M 118.5,111.5 C 217.5,111.5 316.5,111.5 415.5,111.5C 415.5,115.5 415.5,119.5 415.5,123.5C 315.5,123.5 215.5,123.5 115.5,123.5C 115.566,119.235 116.566,115.235 118.5,111.5 Z"/></g>
<g><path style="opacity:1" fill="#e9e9e9" d="M 115.5,135.5 C 215.5,135.5 315.5,135.5 415.5,135.5C 415.5,139.5 415.5,143.5 415.5,147.5C 315.5,147.5 215.5,147.5 115.5,147.5C 115.5,143.5 115.5,139.5 115.5,135.5 Z"/></g>
<g><path style="opacity:1" fill="#d4d4d4" d="M 416.5,99.5 C 416.5,122.833 416.5,146.167 416.5,169.5C 415.521,166.375 415.187,163.042 415.5,159.5C 339.5,159.5 263.5,159.5 187.5,159.5C 183.5,159.5 179.5,159.5 175.5,159.5C 171.5,159.5 167.5,159.5 163.5,159.5C 159.5,159.5 155.5,159.5 151.5,159.5C 140.833,159.5 130.167,159.5 119.5,159.5C 117.194,155.915 115.861,151.915 115.5,147.5C 215.5,147.5 315.5,147.5 415.5,147.5C 415.5,143.5 415.5,139.5 415.5,135.5C 315.5,135.5 215.5,135.5 115.5,135.5C 115.5,131.5 115.5,127.5 115.5,123.5C 215.5,123.5 315.5,123.5 415.5,123.5C 415.5,119.5 415.5,115.5 415.5,111.5C 316.5,111.5 217.5,111.5 118.5,111.5C 121.727,106.035 126.394,102.202 132.5,100C 227.166,99.5 321.833,99.3333 416.5,99.5 Z"/></g>
<g><path style="opacity:1" fill="#e7e8e9" d="M 119.5,159.5 C 130.167,159.5 140.833,159.5 151.5,159.5C 151.5,163.5 151.5,167.5 151.5,171.5C 144.743,171.877 138.076,171.377 131.5,170C 126.05,168.043 122.05,164.543 119.5,159.5 Z"/></g>
<g><path style="opacity:1" fill="#e9c944" d="M 151.5,159.5 C 155.5,159.5 159.5,159.5 163.5,159.5C 163.5,188.5 163.5,217.5 163.5,246.5C 159.852,249.66 155.852,252.327 151.5,254.5C 151.5,250.833 151.5,247.167 151.5,243.5C 151.5,239.5 151.5,235.5 151.5,231.5C 151.5,227.5 151.5,223.5 151.5,219.5C 151.5,211.5 151.5,203.5 151.5,195.5C 151.5,187.5 151.5,179.5 151.5,171.5C 151.5,167.5 151.5,163.5 151.5,159.5 Z"/></g>
<g><path style="opacity:1" fill="#e9c944" d="M 175.5,159.5 C 179.5,159.5 183.5,159.5 187.5,159.5C 187.5,163.5 187.5,167.5 187.5,171.5C 187.5,179.5 187.5,187.5 187.5,195.5C 187.5,203.5 187.5,211.5 187.5,219.5C 187.5,223.5 187.5,227.5 187.5,231.5C 187.5,235.5 187.5,239.5 187.5,243.5C 187.815,247.371 187.482,251.038 186.5,254.5C 182.618,252.066 178.952,249.399 175.5,246.5C 175.5,217.5 175.5,188.5 175.5,159.5 Z"/></g>
<g><path style="opacity:1" fill="#e7e8e9" d="M 187.5,159.5 C 263.5,159.5 339.5,159.5 415.5,159.5C 415.187,163.042 415.521,166.375 416.5,169.5C 416.5,169.833 416.5,170.167 416.5,170.5C 340.335,171.499 264.002,171.833 187.5,171.5C 187.5,167.5 187.5,163.5 187.5,159.5 Z"/></g>
<g><path style="opacity:1" fill="#d4b73e" d="M 163.5,159.5 C 167.5,159.5 171.5,159.5 175.5,159.5C 175.5,188.5 175.5,217.5 175.5,246.5C 173.534,245.559 171.534,244.559 169.5,243.5C 167.466,244.559 165.466,245.559 163.5,246.5C 163.5,217.5 163.5,188.5 163.5,159.5 Z"/></g>
<g><path style="opacity:0.998" fill="#459eca" d="M 416.5,170.5 C 425.473,172.105 429.306,177.438 428,186.5C 426.695,189.961 424.529,192.628 421.5,194.5C 343.571,195.497 265.571,195.83 187.5,195.5C 187.5,187.5 187.5,179.5 187.5,171.5C 264.002,171.833 340.335,171.499 416.5,170.5 Z"/></g>
<g><path style="opacity:0.995" fill="#444854" d="M 421.5,194.5 C 435.735,192.859 445.568,198.525 451,211.5C 451.667,240.833 451.667,270.167 451,299.5C 448.223,305.943 443.723,310.777 437.5,314C 424.227,315.425 410.894,315.925 397.5,315.5C 305.459,315.828 213.459,315.495 121.5,314.5C 113.188,308.092 112.522,300.925 119.5,293C 122.022,291.659 124.689,290.826 127.5,290.5C 220.999,291.666 314.666,291.832 408.5,291C 414.933,289.458 419.933,285.958 423.5,280.5C 425.485,277.879 426.485,274.879 426.5,271.5C 427.488,266.36 427.821,261.026 427.5,255.5C 427.5,251.5 427.5,247.5 427.5,243.5C 427.659,238.554 426.325,234.22 423.5,230.5C 420.416,225.603 416.082,222.103 410.5,220C 336.167,219.5 261.834,219.333 187.5,219.5C 187.5,211.5 187.5,203.5 187.5,195.5C 265.571,195.83 343.571,195.497 421.5,194.5 Z"/></g>
<g><path style="opacity:0.976" fill="#444955" d="M 121.5,195.5 C 131.5,195.5 141.5,195.5 151.5,195.5C 151.5,203.5 151.5,211.5 151.5,219.5C 143.082,219.198 134.748,219.531 126.5,220.5C 116.76,217.691 113.26,211.358 116,201.5C 117.36,198.977 119.193,196.977 121.5,195.5 Z"/></g>
<g><path style="opacity:1" fill="#eaeaea" d="M 187.5,219.5 C 261.834,219.333 336.167,219.5 410.5,220C 416.082,222.103 420.416,225.603 423.5,230.5C 345.002,231.499 266.335,231.833 187.5,231.5C 187.5,227.5 187.5,223.5 187.5,219.5 Z"/></g>
<g><path style="opacity:0.965" fill="#eaeaea" d="M 151.5,219.5 C 151.5,223.5 151.5,227.5 151.5,231.5C 143.167,231.5 134.833,231.5 126.5,231.5C 126.5,227.833 126.5,224.167 126.5,220.5C 134.748,219.531 143.082,219.198 151.5,219.5 Z"/></g>
<g><path style="opacity:0.956" fill="#d4d4d4" d="M 126.5,231.5 C 134.833,231.5 143.167,231.5 151.5,231.5C 151.5,235.5 151.5,239.5 151.5,243.5C 143.167,243.5 134.833,243.5 126.5,243.5C 126.5,239.5 126.5,235.5 126.5,231.5 Z"/></g>
<g><path style="opacity:1" fill="#d4d4d4" d="M 423.5,230.5 C 426.325,234.22 427.659,238.554 427.5,243.5C 347.5,243.5 267.5,243.5 187.5,243.5C 187.5,239.5 187.5,235.5 187.5,231.5C 266.335,231.833 345.002,231.499 423.5,230.5 Z"/></g>
<g><path style="opacity:0.957" fill="#e9e9e9" d="M 126.5,243.5 C 134.833,243.5 143.167,243.5 151.5,243.5C 151.5,247.167 151.5,250.833 151.5,254.5C 143.35,255.493 135.017,255.826 126.5,255.5C 126.5,251.5 126.5,247.5 126.5,243.5 Z"/></g>
<g><path style="opacity:1" fill="#e9e9e9" d="M 187.5,243.5 C 267.5,243.5 347.5,243.5 427.5,243.5C 427.5,247.5 427.5,251.5 427.5,255.5C 346.998,255.833 266.665,255.499 186.5,254.5C 187.482,251.038 187.815,247.371 187.5,243.5 Z"/></g>
<g><path style="opacity:1" fill="#d3d3d3" d="M 175.5,246.5 C 178.952,249.399 182.618,252.066 186.5,254.5C 266.665,255.499 346.998,255.833 427.5,255.5C 427.821,261.026 427.488,266.36 426.5,271.5C 426.5,270.167 426.5,268.833 426.5,267.5C 326.5,267.5 226.5,267.5 126.5,267.5C 126.5,263.5 126.5,259.5 126.5,255.5C 135.017,255.826 143.35,255.493 151.5,254.5C 155.852,252.327 159.852,249.66 163.5,246.5C 165.466,245.559 167.466,244.559 169.5,243.5C 171.534,244.559 173.534,245.559 175.5,246.5 Z"/></g>
<g><path style="opacity:0.997" fill="#e9e9e9" d="M 126.5,267.5 C 226.5,267.5 326.5,267.5 426.5,267.5C 426.5,268.833 426.5,270.167 426.5,271.5C 426.485,274.879 425.485,277.879 423.5,280.5C 324.57,279.502 225.57,279.169 126.5,279.5C 126.5,275.5 126.5,271.5 126.5,267.5 Z"/></g>
<g><path style="opacity:0.997" fill="#d1d1d1" d="M 126.5,279.5 C 225.57,279.169 324.57,279.502 423.5,280.5C 419.933,285.958 414.933,289.458 408.5,291C 314.666,291.832 220.999,291.666 127.5,290.5C 126.577,286.936 126.244,283.269 126.5,279.5 Z"/></g>
<g><path style="opacity:0.989" fill="#ee4d4d" d="M 121.5,314.5 C 213.459,315.495 305.459,315.828 397.5,315.5C 406.255,322.561 406.589,330.061 398.5,338C 396.655,339.128 394.655,339.628 392.5,339.5C 299.5,339.5 206.5,339.5 113.5,339.5C 105.07,340.277 98.7371,344.277 94.5,351.5C 92.686,355.279 91.686,359.279 91.5,363.5C 91.5,367.5 91.5,371.5 91.5,375.5C 91.5,379.5 91.5,383.5 91.5,387.5C 91.804,390.522 92.304,393.522 93,396.5C 93.3768,397.942 94.2101,398.942 95.5,399.5C 98.5569,405.708 103.557,409.541 110.5,411C 204.668,411.832 298.668,411.666 392.5,410.5C 403.43,413.451 406.597,420.118 402,430.5C 400.457,432.378 398.624,433.878 396.5,435C 291.457,435.991 186.457,435.658 81.5,434C 75.2767,430.777 70.7767,425.943 68,419.5C 67.3333,390.167 67.3333,360.833 68,331.5C 71.1838,322.658 77.3505,317.158 86.5,315C 98.1619,314.5 109.829,314.333 121.5,314.5 Z"/></g>
<g><path style="opacity:1" fill="#d3d3d3" d="M 113.5,339.5 C 205.999,340.499 298.665,340.833 391.5,340.5C 391.5,343.833 391.5,347.167 391.5,350.5C 292.999,350.167 194.665,350.501 96.5,351.5C 95.8333,351.5 95.1667,351.5 94.5,351.5C 98.7371,344.277 105.07,340.277 113.5,339.5 Z"/></g>
<g><path style="opacity:0.824" fill="#d9dbdb" d="M 113.5,339.5 C 206.5,339.5 299.5,339.5 392.5,339.5C 392.5,362.833 392.5,386.167 392.5,409.5C 391.521,406.375 391.187,403.042 391.5,399.5C 292.833,399.5 194.167,399.5 95.5,399.5C 193.999,398.501 292.665,398.167 391.5,398.5C 391.5,394.833 391.5,391.167 391.5,387.5C 391.5,383.5 391.5,379.5 391.5,375.5C 291.833,375.5 192.167,375.5 92.5,375.5C 191.999,374.501 291.665,374.167 391.5,374.5C 391.5,370.833 391.5,367.167 391.5,363.5C 391.5,359.5 391.5,355.5 391.5,351.5C 293.167,351.5 194.833,351.5 96.5,351.5C 194.665,350.501 292.999,350.167 391.5,350.5C 391.5,347.167 391.5,343.833 391.5,340.5C 298.665,340.833 205.999,340.499 113.5,339.5 Z"/></g>
<g><path style="opacity:1" fill="#e9e9e9" d="M 94.5,351.5 C 95.1667,351.5 95.8333,351.5 96.5,351.5C 194.833,351.5 293.167,351.5 391.5,351.5C 391.5,355.5 391.5,359.5 391.5,363.5C 291.5,363.5 191.5,363.5 91.5,363.5C 91.686,359.279 92.686,355.279 94.5,351.5 Z"/></g>
<g><path style="opacity:1" fill="#d3d3d3" d="M 91.5,363.5 C 191.5,363.5 291.5,363.5 391.5,363.5C 391.5,367.167 391.5,370.833 391.5,374.5C 291.665,374.167 191.999,374.501 92.5,375.5C 92.1667,375.5 91.8333,375.5 91.5,375.5C 91.5,371.5 91.5,367.5 91.5,363.5 Z"/></g>
<g><path style="opacity:1" fill="#e9e9e9" d="M 91.5,375.5 C 91.8333,375.5 92.1667,375.5 92.5,375.5C 192.167,375.5 291.833,375.5 391.5,375.5C 391.5,379.5 391.5,383.5 391.5,387.5C 291.5,387.5 191.5,387.5 91.5,387.5C 91.5,383.5 91.5,379.5 91.5,375.5 Z"/></g>
<g><path style="opacity:1" fill="#d3d3d3" d="M 91.5,387.5 C 191.5,387.5 291.5,387.5 391.5,387.5C 391.5,391.167 391.5,394.833 391.5,398.5C 292.665,398.167 193.999,398.501 95.5,399.5C 94.2101,398.942 93.3768,397.942 93,396.5C 92.304,393.522 91.804,390.522 91.5,387.5 Z"/></g>
<g><path style="opacity:1" fill="#eae7e7" d="M 95.5,399.5 C 194.167,399.5 292.833,399.5 391.5,399.5C 391.187,403.042 391.521,406.375 392.5,409.5C 392.5,409.833 392.5,410.167 392.5,410.5C 298.668,411.666 204.668,411.832 110.5,411C 103.557,409.541 98.5569,405.708 95.5,399.5 Z"/></g>
</svg>
